<?xml version="1.0" encoding="UTF-8"?>
<svg id="Layer_1" data-name="Layer 1" xmlns="http://www.w3.org/2000/svg" viewBox="0 0 2588.28 345.9">
  <defs>
    <style>
      .cls-1, .cls-2, .cls-3, .cls-4 {
        fill:#00a39c;
      }

      .cls-1, .cls-5, .cls-4, .cls-6 {
        fill-rule: evenodd;
      }

      .cls-2 {
        font-family: BookAntiqua-Bold, 'Book Antiqua';
        font-size: 72.82px;
      }

      .cls-7 {
        fill: none;
        stroke:#010101;
        stroke-width: .3px;
      }

      .cls-5 {
        stroke:#ee7d22;
      }

      .cls-5, .cls-4 {
        stroke-width: .05px;
      }

      .cls-5, .cls-6 {
        fill:#ee7d22;
      }

      .cls-4 {
        stroke:#00a39c;
      }
    </style>
  </defs>
  <g>
    <g>
      <path id="path4" class="cls-7" d="M168.58,.15c93.02,0,168.43,77.37,168.43,172.8h0c0,95.43-75.41,172.8-168.43,172.8S.15,268.38,.15,172.95,75.56,.15,168.58,.15Z"/>
      <path id="path6" class="cls-1" d="M189.81,213.79c.05,9.89,.11,19.79,.16,29.68,23.31-1.78,46.03-7.39,65.44-33.89-13-24.98-37.88,2.52-65.6,4.22h0Z"/>
      <path id="path8" class="cls-1" d="M215.69,124.75c13.46,5.32,26.49,5.8,37.79-13.14-85.01-52.62-161.12,9.39-131.2,94.23,7.78-5.08,15.57-10.16,23.35-15.24-18.98-38.64,17.97-84.23,70.06-65.84Z"/>
      <path id="path10" class="cls-6" d="M151.68,144.17c8.49-5.43,16.98-10.87,25.46-16.3,13.37,37.92,8.62,74.14,8.76,114.58-8.19,2.14-15.71,.57-21.73-9.41-.32-6.43-.65-12.87-.97-19.3-70.47,53.7-131.89,6.77-129.87-47.35,2.4-64.16,59.15-83.6,108.14-68.12-6.6,7.35-13.19,14.7-19.79,22.06-53.96-18.82-95.68,73.57-21.08,91.47,41.74,1.77,66.45-28.5,51.08-67.63h0Z"/>
      <path id="path16" class="cls-5" d="M269.42,308.98c25.48-11.82,74.03-78.19,66.41-145.9-5.84-3.24-11.68-6.49-17.51-9.73-10.15,25.42-31.2,39.94-51.9,54.82,19.47-.51,38.49-4.16,54.49-28.54-8.65,42.17-28.57,91.89-51.49,129.36h0Z"/>
      <path id="path18" class="cls-4" d="M284.45,96.78c5.87,0,10.62,4.76,10.62,10.62s-4.76,10.62-10.62,10.62c-5.87,0-10.62-4.76-10.62-10.62,0-5.87,4.76-10.62,10.62-10.62h0Z"/>
      <path id="path20" class="cls-1" d="M336.13,162.01c-1.1-29.12-14.54-68.15-30.04-85.5,11.09,69.35-50.36,60.49-27.76,64.09,21.4,1.32,43.66,7.98,57.8,21.41Z"/>
    </g>
    <path id="path12" class="cls-1" d="M435.7,36.67c8.37,3.88,5.51,11.64,4.7,13.68l-40.84,103.32c-3.88,9.8-7.96,18.99-18.58,25.93h38.59c-9.6-6.74-7.76-15.11-4.9-22.26l12.86-32.06h54.93l15.52,38.39c1.84,4.7,3.47,11.64-6.13,15.93h43.9c-10.01-5.31-14.09-13.07-17.36-21.03l-49.21-121.9h-33.49Zm19.19,18.58l22.26,56.36h-44.31l22.05-56.36Zm126.19,124.35c-11.64-5.51-12.66-17.15-12.66-23.69V53.82c5.51-1.23,11.43-2.04,17.15-2.04,19.19,0,30.63,10.01,30.63,26.75,0,25.73-23.69,33.49-40.02,34.1,5.1,1.43,11.43,2.65,17.36,2.65,22.87,0,46.15-13.68,46.15-40.84,0-37.57-39.61-37.77-50.84-37.77h-50.64c9.39,6.53,9.39,14.7,9.39,20.42v102.09c0,6.74-.2,13.89-9.39,20.42h42.88Zm61.05-142.93c9.39,6.53,9.39,14.7,9.39,20.42v102.09c0,5.72,0,13.89-9.39,20.42h39.61c-9.39-6.53-9.39-14.7-9.39-20.42V52.39c4.7-1.23,8.58-1.43,13.68-1.43,25.12,0,28.59,14.7,28.59,23.89,0,20.42-21.64,28.79-36.35,30.22,12.86,24.09,44.72,75.75,68.2,75.75,2.25,0,7.76-.2,22.05-1.23-20.21-8.37-49.82-45.33-65.75-70.44,22.05-3.68,35.32-19.4,35.32-36.14,0-11.23-4.7-37.16-51.25-37.16-5.92,0-11.84,.2-17.76,.41-8.98,.2-17.97,.41-26.95,.41h0Zm128.84,0c9.39,6.53,9.39,14.7,9.39,20.42v102.09c0,5.72,0,13.89-9.39,20.42h39.61c-9.39-6.53-9.39-14.7-9.39-20.42V57.09c0-5.72,0-13.88,9.39-20.42h-39.61Zm159.47,2.45c-4.49-.61-7.35-1.23-11.43-2.25-6.74-1.43-14.09-3.27-26.54-3.27-51.66,0-79.43,36.35-79.43,75.55,0,31.65,18.99,73.51,80.25,73.51,13.48,0,23.69-1.23,35.73-5.1l13.88-27.36c-6.13,5.1-19.81,15.11-47.98,15.11-41.25,0-58.4-31.85-58.4-61.66,0-34.92,26.75-52.68,53.5-52.68,21.44,0,36.55,10.41,40.43,13.07v-24.91Zm93.31-5.51c-51.46,0-78.41,36.35-78.41,74.53,0,35.94,24.91,74.53,78.41,74.53s78.41-36.35,78.41-74.53c0-35.94-24.91-74.53-78.41-74.53Zm.41,16.74c32.26,0,54.52,25.52,54.52,61.05,0,37.57-28.99,54.52-55.34,54.52-32.26,0-54.52-25.52-54.52-61.05,0-37.57,28.99-54.52,55.34-54.52Zm146.82,2.65l22.87-.2c5.1,0,12.46,0,16.34,6.94l7.15-23.89c-3.68,.41-8.17,.82-12.46,.82h-79.02c-5.31,0-8.17,0-13.07-.82l-8.17,25.52c7.56-7.76,16.34-8.58,21.24-8.58l24.3,.2v106.18c0,5.72,0,13.89-9.39,20.42h39.61c-9.39-6.53-9.39-14.7-9.39-20.42V53Zm210.11-13.88c-4.49-.61-7.35-1.23-11.43-2.25-6.74-1.43-14.09-3.27-26.54-3.27-51.66,0-79.43,36.35-79.43,75.55,0,31.65,18.99,73.51,80.25,73.51,13.48,0,23.69-1.23,35.73-5.1l13.88-27.36c-6.13,5.1-19.81,15.11-47.98,15.11-41.25,0-58.4-31.85-58.4-61.66,0-34.92,26.75-52.68,53.5-52.68,21.44,0,36.55,10.41,40.43,13.07v-24.91Zm69.84-2.45c8.37,3.88,5.51,11.64,4.7,13.68l-40.84,103.32c-3.88,9.8-7.96,18.99-18.58,25.93h38.59c-9.6-6.74-7.76-15.11-4.9-22.26l12.86-32.06h54.93l15.52,38.39c1.84,4.7,3.47,11.64-6.13,15.93h43.9c-10.01-5.31-14.09-13.07-17.36-21.03l-49.21-121.9h-33.49Zm16.53,18.58l22.26,56.36h-44.31l22.05-56.36Zm85.97-18.58c9.39,6.53,9.39,14.7,9.39,20.42v102.09c0,5.72,0,13.89-9.39,20.42h39.61c-9.39-6.53-9.39-14.7-9.39-20.42V52.39c4.7-1.23,8.58-1.43,13.68-1.43,25.12,0,28.59,14.7,28.59,23.89,0,20.42-21.64,28.79-36.35,30.22,12.86,24.09,44.72,75.75,68.2,75.75,2.25,0,7.76-.2,22.05-1.23-20.21-8.37-49.82-45.33-65.75-70.44,22.05-3.68,35.32-19.4,35.32-36.14,0-11.23-4.7-37.16-51.25-37.16-5.92,0-11.84,.2-17.76,.41-8.98,.2-17.97,.41-26.95,.41h0Zm129.08,0c9.39,6.53,9.39,15.11,9.39,20.42v102.09c0,5.31,0,13.89-9.39,20.42h89.03l10.41-28.79c-8.98,7.96-20.21,12.46-42.68,12.46-4.08,0-14.09-.2-26.54-1.43v-51.25h21.24c7.15,0,11.64,1.43,15.52,5.31v-22.26c-2.25,.41-4.7,.61-7.35,.61h-29.4V53.41l27.57-.61c12.05-.2,17.56,2.86,21.44,7.35v-23.48h-79.23Z"/>
    <path id="path14" class="cls-6" d="M402.86,309.07c-5.94-2.81-6.46-8.76-6.46-12.09v-52.12c2.81-.63,5.84-1.04,8.76-1.04,9.8,0,15.63,5.11,15.63,13.65,0,13.13-12.09,17.09-20.43,17.41,2.61,.73,5.84,1.36,8.86,1.36,11.67,0,23.56-6.98,23.56-20.85,0-19.18-20.22-19.28-25.95-19.28h-25.85c4.79,3.34,4.79,7.5,4.79,10.42v52.12c0,3.44-.1,7.09-4.79,10.42h21.89Zm51.91-44.19v-18.34c0-3.44,.1-7.09,4.79-10.42h-20.22c4.69,3.34,4.79,6.98,4.79,10.42v52.12c0,3.44-.1,7.09-4.79,10.42h20.22c-4.69-3.34-4.79-6.98-4.79-10.42v-25.43h40.13v25.43c0,3.44-.1,7.09-4.79,10.42h20.22c-4.69-3.34-4.79-6.98-4.79-10.42v-52.12c0-3.44,.1-7.09,4.79-10.42h-20.22c4.69,3.34,4.79,6.98,4.79,10.42v18.34h-40.13Zm55.87-28.77c2.29,1.04,5.21,3.02,7.82,7.09l21.47,33.15v22.31c0,2.92,0,7.09-4.79,10.42h20.22c-4.79-3.34-4.79-7.5-4.79-10.42v-22.2l26.89-40.34h-18.03c1.77,.94,3.54,2.92,3.54,5.32,0,1.35-.63,2.81-1.46,4.17l-14.38,22.31-19.91-31.48c-1.04-.42-1.88-.52-3.02-.52l-13.55,.21Zm110.49,.73c-5.42-1.56-10.74-2.29-16.78-2.29-21.68,0-27.31,10.53-27.31,19.49,0,11.47,8.86,16.05,20.74,21.47,9.17,4.17,17.62,7.19,17.62,15.63,0,6.98-6.67,11.15-16.99,11.15-12.3,0-19.7-5.21-23.56-8.55l3.02,13.76c6.77,2.29,13.03,3.13,19.91,3.13,15.22,0,29.29-6.67,29.29-22.41,0-11.26-7.4-15.11-19.7-20.64-12.61-5.63-18.34-8.55-18.34-14.8,0-3.96,2.5-10.53,14.28-10.53,4.27,0,10.53,.73,17.82,6.77v-12.2Zm10.94-.73c4.79,3.34,4.79,7.5,4.79,10.42v52.12c0,2.92,0,7.09-4.79,10.42h20.22c-4.79-3.34-4.79-7.5-4.79-10.42v-52.12c0-2.92,0-7.09,4.79-10.42h-20.22Zm68.48-1.56c-26.27,0-40.02,18.55-40.02,38.04,0,18.34,12.72,38.04,40.02,38.04s40.02-18.55,40.02-38.04c0-18.34-12.72-38.04-40.02-38.04Zm.21,8.55c16.47,0,27.83,13.03,27.83,31.17,0,19.18-14.8,27.83-28.25,27.83-16.47,0-27.83-13.03-27.83-31.17,0-19.18,14.8-27.83,28.25-27.83h0Zm74.32,1.36l11.67-.1c2.61,0,6.36,0,8.34,3.54l3.65-12.2c-1.88,.21-4.17,.42-6.36,.42h-40.34c-2.71,0-4.17,0-6.67-.42l-4.17,13.03c3.86-3.96,8.34-4.38,10.84-4.38l12.4,.1v54.2c0,2.92,0,7.09-4.79,10.42h20.22c-4.79-3.34-4.79-7.5-4.79-10.42v-54.2Zm40.44,20.43v-18.34c0-3.44,.1-7.09,4.79-10.42h-20.22c4.69,3.34,4.79,6.98,4.79,10.42v52.12c0,3.44-.1,7.09-4.79,10.42h20.22c-4.69-3.34-4.79-6.98-4.79-10.42v-25.43h40.13v25.43c0,3.44-.1,7.09-4.79,10.42h20.22c-4.69-3.34-4.79-6.98-4.79-10.42v-52.12c0-3.44,.1-7.09,4.79-10.42h-20.22c4.69,3.34,4.79,6.98,4.79,10.42v18.34h-40.13Zm64.52-28.77c4.79,3.34,4.79,7.71,4.79,10.42v52.12c0,2.71,0,7.09-4.79,10.42h45.45l5.32-14.7c-4.59,4.06-10.32,6.36-21.78,6.36-2.08,0-7.19-.1-13.55-.73v-26.16h10.84c3.65,0,5.94,.73,7.92,2.71v-11.36c-1.15,.21-2.4,.31-3.75,.31h-15.01v-20.85l14.07-.31c6.15-.1,8.96,1.46,10.94,3.75v-11.99h-40.44Zm53.68,0c4.79,3.34,4.79,7.5,4.79,10.42v52.12c0,2.92,0,7.09-4.79,10.42h20.22c-4.79-3.34-4.79-7.5-4.79-10.42v-54.51c2.4-.63,4.38-.73,6.98-.73,12.82,0,14.59,7.5,14.59,12.2,0,10.42-11.05,14.7-18.55,15.43,6.57,12.3,22.83,38.67,34.81,38.67,1.15,0,3.96-.1,11.26-.63-10.32-4.27-25.43-23.14-33.56-35.96,11.26-1.88,18.03-9.9,18.03-18.45,0-5.73-2.4-18.97-26.16-18.97-3.02,0-6.05,.1-9.07,.21-4.59,.1-9.17,.21-13.76,.21h0Zm76.82,0c4.27,1.98,2.81,5.94,2.4,6.98l-20.85,52.74c-1.98,5-4.07,9.69-9.49,13.24h19.7c-4.9-3.44-3.96-7.71-2.5-11.36l6.57-16.36h28.04l7.92,19.6c.94,2.4,1.77,5.94-3.13,8.13h22.41c-5.11-2.71-7.19-6.67-8.86-10.74l-25.12-62.23h-17.09Zm9.8,9.49l11.36,28.77h-22.62l11.26-28.77Zm62.44,63.48c-5.94-2.81-6.46-8.76-6.46-12.09v-52.12c2.81-.63,5.84-1.04,8.76-1.04,9.8,0,15.63,5.11,15.63,13.65,0,13.13-12.09,17.09-20.43,17.41,2.61,.73,5.84,1.36,8.86,1.36,11.67,0,23.56-6.98,23.56-20.85,0-19.18-20.22-19.28-25.95-19.28h-25.85c4.79,3.34,4.79,7.5,4.79,10.42v52.12c0,3.44-.1,7.09-4.79,10.42h21.89Zm27.83-72.96c2.29,1.04,5.21,3.02,7.82,7.09l21.47,33.15v22.31c0,2.92,0,7.09-4.79,10.42h20.22c-4.79-3.34-4.79-7.5-4.79-10.42v-22.2l26.89-40.34h-18.03c1.77,.94,3.54,2.92,3.54,5.32,0,1.35-.63,2.81-1.46,4.17l-14.38,22.31-19.91-31.48c-1.04-.42-1.88-.52-3.02-.52l-13.55,.21Zm118.51,29.71c6.15-5.11,10.63-10.32,10.63-16.68,0-7.5-5.32-14.59-16.68-14.59-12.19,0-17.41,7.71-17.41,15.11,0,5.73,3.65,10.42,8.96,15.32-12.82,8.96-15.63,16.99-15.63,24.49,0,13.55,11.26,21.16,25.54,21.16,8.76,0,15.63-2.5,22.93-12.92,9.49,8.96,15.95,11.99,22.1,11.78l13.55-.42c-7.82-3.23-19.49-9.59-40.34-29.91l-13.65-13.34Zm-6.25-6.57c-3.54-2.61-7.61-6.77-7.61-11.47,0-4.07,3.13-6.57,7.3-6.57,4.59,0,7.61,3.02,7.61,7.4,0,5.73-5.32,9.38-7.3,10.63h0Zm20.12,34.4c-6.25,7.82-11.78,9.17-17.3,9.17-8.96,0-15.11-5.94-15.11-14.8,0-7.4,5.84-13.03,10.42-16.05l21.99,21.68Zm35.23-57.54c1.25,.94,4.59,3.65,6.67,10.42l15.43,49.3c1.88,6.05,4.9,10.84,13.86,16.16l17.82-55.76,12.4,39.82c1.67,5.32,3.34,10.32,13.76,15.95l25.43-75.88h-16.78c3.23,1.56,5,4.69,5,8.23,0,1.15-.1,3.23-1.46,7.3l-14.7,45.34-16.26-51.59c-1.15-3.65-1.25-6.67-1.04-9.28h-14.28c2.81,1.88,3.65,4.59,3.65,7.19,0,2.19-.52,4.79-1.15,6.78l-15.01,46.59-16.68-54.1c-.73-2.4-1.04-4.48-1.04-6.46h-15.63Zm106.73,0c4.79,3.34,4.79,7.71,4.79,10.42v52.12c0,2.71,0,7.09-4.79,10.42h45.45l5.32-14.7c-4.59,4.06-10.32,6.36-21.78,6.36-2.08,0-7.19-.1-13.55-.73v-26.16h10.84c3.65,0,5.94,.73,7.92,2.71v-11.36c-1.15,.21-2.4,.31-3.75,.31h-15.01v-20.85l14.07-.31c6.15-.1,8.96,1.46,10.94,3.75v-11.99h-40.44Zm53.68,0c4.79,3.34,4.79,7.5,4.79,10.42v52.12c0,2.92,0,7.09-4.79,10.42h44.82l5.84-15.11c-6.57,5.52-16.47,6.77-23.24,6.77-3.44,0-8.55-.52-11.99-.94v-53.26c0-2.61,.21-7.19,5.32-10.42h-20.74Zm53.58,0c4.79,3.34,4.79,7.5,4.79,10.42v52.12c0,2.92,0,7.09-4.79,10.42h44.82l5.84-15.11c-6.57,5.52-16.47,6.77-23.24,6.77-3.44,0-8.55-.52-11.99-.94v-53.26c0-2.61,.21-7.19,5.32-10.42h-20.74Zm53.26,0c4.79,3.34,4.79,7.5,4.79,10.42v52.12c0,2.92,0,7.09-4.79,10.42h17.72c-4.79-3.34-4.79-7.5-4.79-10.42v-47.43l38.67,48.36c3.65,4.59,7.71,10.01,16.26,12.4v-65.46c0-2.92,0-7.09,4.79-10.42h-17.72c4.79,3.34,4.79,7.5,4.79,10.42v45.45l-42.63-53.16c-.1-.1-.73-.94-1.56-2.71h-15.53Zm81.3,0c4.79,3.34,4.79,7.71,4.79,10.42v52.12c0,2.71,0,7.09-4.79,10.42h45.45l5.32-14.7c-4.59,4.06-10.32,6.36-21.78,6.36-2.08,0-7.19-.1-13.55-.73v-26.16h10.84c3.65,0,5.94,.73,7.92,2.71v-11.36c-1.15,.21-2.4,.31-3.75,.31h-15.01v-20.85l14.07-.31c6.15-.1,8.96,1.46,10.94,3.75v-11.99h-40.44Zm96,.73c-5.42-1.56-10.74-2.29-16.78-2.29-21.68,0-27.31,10.53-27.31,19.49,0,11.47,8.86,16.05,20.74,21.47,9.17,4.17,17.62,7.19,17.62,15.63,0,6.98-6.67,11.15-16.99,11.15-12.3,0-19.7-5.21-23.56-8.55l3.02,13.76c6.77,2.29,13.03,3.13,19.91,3.13,15.22,0,29.29-6.67,29.29-22.41,0-11.26-7.4-15.11-19.7-20.64-12.61-5.63-18.34-8.55-18.34-14.8,0-3.96,2.5-10.53,14.28-10.53,4.27,0,10.53,.73,17.82,6.77v-12.2Zm53.26,0c-5.42-1.56-10.74-2.29-16.78-2.29-21.68,0-27.31,10.53-27.31,19.49,0,11.47,8.86,16.05,20.74,21.47,9.17,4.17,17.62,7.19,17.62,15.63,0,6.98-6.67,11.15-16.99,11.15-12.3,0-19.7-5.21-23.56-8.55l3.02,13.76c6.77,2.29,13.03,3.13,19.91,3.13,15.22,0,29.29-6.67,29.29-22.41,0-11.26-7.4-15.11-19.7-20.64-12.61-5.63-18.34-8.55-18.34-14.8,0-3.96,2.5-10.53,14.28-10.53,4.27,0,10.53,.73,17.82,6.77v-12.2Z"/>
  </g>
  <text class="cls-2" transform="translate(2169.55 225.69)"><tspan x="0" y="0">73 8764 1462</tspan><tspan x="-18.21" y="81.31">020 4723 4909</tspan></text>
  <path class="cls-3" d="M2369.81,33.61c-30.45-.09-55.38,24.69-55.28,55.38,.1,30.27,24.55,54.71,54.63,55.01,31.05,.31,55.86-24.86,55.79-55.33-.07-30.37-24.76-55.07-55.14-55.06Zm3.7,22.1c14.56,.93,26.07,10.99,28.82,25.26,.27,1.42,.31,2.89,.5,4.33,.11,.86-.1,1.3-1.06,1.15-.41-.06-.84-.01-1.26-.01-2.35,0-2.29,0-2.48-1.95-.96-9.99-6.02-17.18-14.96-21.64-3.11-1.55-6.46-2.3-9.94-2.4-.77-.02-1.1-.23-1.02-1.05,.07-.8,.11-1.62,0-2.41-.17-1.22,.38-1.34,1.41-1.27Zm12.68,28.69c-1.34-7.05-6.23-11.51-13.41-12.12-.6-.05-.67-.28-.66-.77,.02-1,.06-2,0-2.99-.05-.79,.23-.98,.98-.92,7.76,.62,13.21,4.52,16.43,11.56,.88,1.92,1.29,3.98,1.44,6.1,.07,.96-.19,1.33-1.16,1.19-.38-.05-.77,0-1.15,0v-.05c-.72,0-1.58,.24-2.14-.07-.56-.31-.2-1.26-.33-1.92Zm15.71,25.73c-3.86,4.47-8.41,8.13-13.36,11.31-.44,.28-.92,.57-1.58,.44-4.07-.42-8-1.67-11.7-3.52-15.57-7.78-27.28-19.47-35.06-35.04-1.76-3.52-2.96-7.27-3.47-11.21-.09-.72-.07-1.36,.32-1.98,3.24-5.1,7.01-9.76,11.63-13.69,1.35-1.15,2.24-1,3.48,.53,2.17,2.68,3.91,5.66,5.66,8.62,1.13,1.9,2.23,3.83,3.08,5.88,.75,1.82,.68,2.3-.76,3.63-1.49,1.38-3.02,2.71-4.55,4.04-.57,.49-.66,.99-.43,1.71,3.08,9.48,9.19,16.33,18.06,20.79,1.43,.72,2.94,1.26,4.47,1.75,.78,.25,1.28,.1,1.79-.49,1.35-1.56,2.76-3.08,4.11-4.65,.93-1.08,1.99-1.3,3.27-.71,5.23,2.39,10.11,5.38,14.7,8.84,1.68,1.26,1.73,2.15,.36,3.73Z"/>
</svg>