<?xml version="1.0" encoding="utf-8"?>
<!-- Generator: Adobe Illustrator 26.5.2, SVG Export Plug-In . SVG Version: 6.00 Build 0)  -->
<svg version="1.1" id="Layer_1" xmlns="http://www.w3.org/2000/svg" xmlns:xlink="http://www.w3.org/1999/xlink" x="0px" y="0px"
	 viewBox="0 0 4320 4320" style="enable-background:new 0 0 4320 4320;" xml:space="preserve">
<style type="text/css">
	.st0{fill:none;stroke:#010101;stroke-width:2.7503;}
	.st1{fill-rule:evenodd;clip-rule:evenodd;fill:#00A39C;}
	.st2{fill-rule:evenodd;clip-rule:evenodd;fill:#EE7D22;}
	.st3{fill-rule:evenodd;clip-rule:evenodd;fill:#EE7D22;stroke:#EE7D22;stroke-width:0.4584;}
	.st4{fill-rule:evenodd;clip-rule:evenodd;fill:#00A39C;stroke:#00A39C;stroke-width:0.4584;}
</style>
<g>
	<g>
		<path id="path4" class="st0" d="M568.7,1779.4c204.9,0,371,170.4,371,380.6l0,0c0,210.2-166.1,380.6-371,380.6
			s-371-170.4-371-380.6S363.9,1779.4,568.7,1779.4z"/>
		<path id="path6" class="st1" d="M615.5,2249.9c0.1,21.8,0.2,43.6,0.4,65.4c51.4-3.9,101.4-16.3,144.1-74.7
			C731.4,2185.7,676.6,2246.2,615.5,2249.9L615.5,2249.9z"/>
		<path id="path8" class="st1" d="M672.5,2053.8c29.7,11.7,58.3,12.8,83.2-28.9c-187.2-115.9-354.9,20.7-289,207.5
			c17.1-11.2,34.3-22.4,51.4-33.6C476.4,2113.8,557.8,2013.3,672.5,2053.8z"/>
		<path id="path10" class="st2" d="M531.5,2096.6c18.7-12,37.4-23.9,56.1-35.9c29.5,83.5,19,163.3,19.3,252.4
			c-18,4.7-34.6,1.2-47.9-20.7c-0.7-14.2-1.4-28.3-2.1-42.5c-155.2,118.3-290.5,14.9-286-104.3c5.3-141.3,130.3-184.1,238.2-150
			c-14.5,16.2-29.1,32.4-43.6,48.6c-118.8-41.5-210.7,162-46.4,201.5C511,2249.5,565.4,2182.8,531.5,2096.6L531.5,2096.6z"/>
		<path id="path16" class="st3" d="M790.8,2459.6c56.1-26,163-172.2,146.3-321.3c-12.9-7.1-25.7-14.3-38.6-21.4
			c-22.4,56-68.7,88-114.3,120.7c42.9-1.1,84.8-9.2,120-62.9C885.2,2267.6,841.3,2377.1,790.8,2459.6L790.8,2459.6z"/>
		<path id="path18" class="st4" d="M823.9,1992.2c12.9,0,23.4,10.5,23.4,23.4c0,12.9-10.5,23.4-23.4,23.4
			c-12.9,0-23.4-10.5-23.4-23.4C800.5,2002.7,811,1992.2,823.9,1992.2L823.9,1992.2z"/>
		<path id="path20" class="st1" d="M937.8,2135.9c-2.4-64.1-32-150.1-66.2-188.3c24.4,152.8-110.9,133.2-61.2,141.2
			C857.6,2091.7,906.6,2106.3,937.8,2135.9z"/>
	</g>
	<path id="path12" class="st1" d="M1157.1,1859.8c18.4,8.5,12.1,25.6,10.3,30.1l-89.9,227.6c-8.5,21.6-17.5,41.8-40.9,57.1h85
		c-21.1-14.8-17.1-33.3-10.8-49l28.3-70.6h121l34.2,84.5c4,10.3,7.6,25.6-13.5,35.1h96.7c-22-11.7-31-28.8-38.2-46.3l-108.4-268.5
		H1157.1z M1199.4,1900.8l49,124.1h-97.6L1199.4,1900.8z M1477.3,2174.6c-25.6-12.1-27.9-37.8-27.9-52.2v-224.9
		c12.1-2.7,25.2-4.5,37.8-4.5c42.3,0,67.5,22,67.5,58.9c0,56.7-52.2,73.8-88.1,75.1c11.2,3.1,25.2,5.8,38.2,5.8
		c50.4,0,101.6-30.1,101.6-89.9c0-82.8-87.2-83.2-112-83.2h-111.5c20.7,14.4,20.7,32.4,20.7,45v224.9c0,14.8-0.5,30.6-20.7,45
		L1477.3,2174.6z M1611.7,1859.8c20.7,14.4,20.7,32.4,20.7,45v224.9c0,12.6,0,30.6-20.7,45h87.2c-20.7-14.4-20.7-32.4-20.7-45
		v-235.2c10.3-2.7,18.9-3.1,30.1-3.1c55.3,0,63,32.4,63,52.6c0,45-47.7,63.4-80.1,66.6c28.3,53.1,98.5,166.8,150.2,166.8
		c4.9,0,17.1-0.4,48.6-2.7c-44.5-18.4-109.7-99.8-144.8-155.2c48.6-8.1,77.8-42.7,77.8-79.6c0-24.7-10.3-81.9-112.9-81.9
		c-13,0-26.1,0.4-39.1,0.9C1651.3,1859.4,1631.5,1859.8,1611.7,1859.8L1611.7,1859.8z M1895.5,1859.8c20.7,14.4,20.7,32.4,20.7,45
		v224.9c0,12.6,0,30.6-20.7,45h87.2c-20.7-14.4-20.7-32.4-20.7-45v-224.9c0-12.6,0-30.6,20.7-45H1895.5z M2246.8,1865.2
		c-9.9-1.3-16.2-2.7-25.2-4.9c-14.8-3.1-31-7.2-58.5-7.2c-113.8,0-174.9,80.1-174.9,166.4c0,69.7,41.8,161.9,176.7,161.9
		c29.7,0,52.2-2.7,78.7-11.2l30.6-60.3c-13.5,11.2-43.6,33.3-105.7,33.3c-90.8,0-128.6-70.2-128.6-135.8c0-76.9,58.9-116,117.8-116
		c47.2,0,80.5,22.9,89,28.8L2246.8,1865.2z M2452.3,1853.1c-113.3,0-172.7,80.1-172.7,164.2c0,79.2,54.9,164.2,172.7,164.2
		c113.3,0,172.7-80.1,172.7-164.2C2625,1938.1,2570.1,1853.1,2452.3,1853.1z M2453.2,1890c71.1,0,120.1,56.2,120.1,134.5
		c0,82.7-63.9,120.1-121.9,120.1c-71.1,0-120.1-56.2-120.1-134.5C2331.3,1927.3,2395.2,1890,2453.2,1890z M2776.5,1895.8l50.4-0.4
		c11.2,0,27.4,0,36,15.3l15.7-52.6c-8.1,0.9-18,1.8-27.4,1.8h-174c-11.7,0-18,0-28.8-1.8l-18,56.2c16.6-17.1,36-18.9,46.8-18.9
		l53.5,0.4v233.9c0,12.6,0,30.6-20.7,45h87.2c-20.7-14.4-20.7-32.4-20.7-45V1895.8z M3239.3,1865.2c-9.9-1.3-16.2-2.7-25.2-4.9
		c-14.8-3.1-31-7.2-58.5-7.2c-113.8,0-174.9,80.1-174.9,166.4c0,69.7,41.8,161.9,176.7,161.9c29.7,0,52.2-2.7,78.7-11.2l30.6-60.3
		c-13.5,11.2-43.6,33.3-105.7,33.3c-90.8,0-128.6-70.2-128.6-135.8c0-76.9,58.9-116,117.8-116c47.2,0,80.5,22.9,89,28.8V1865.2z
		 M3393.1,1859.8c18.4,8.5,12.1,25.6,10.3,30.1l-89.9,227.6c-8.5,21.6-17.5,41.8-40.9,57.1h85c-21.1-14.8-17.1-33.3-10.8-49
		l28.3-70.6h121l34.2,84.5c4,10.3,7.6,25.6-13.5,35.1h96.7c-22-11.7-31-28.8-38.2-46.3l-108.4-268.5H3393.1z M3429.6,1900.8
		l49,124.1H3381L3429.6,1900.8z M3618.9,1859.8c20.7,14.4,20.7,32.4,20.7,45v224.9c0,12.6,0,30.6-20.7,45h87.2
		c-20.7-14.4-20.7-32.4-20.7-45v-235.2c10.3-2.7,18.9-3.1,30.1-3.1c55.3,0,63,32.4,63,52.6c0,45-47.7,63.4-80.1,66.6
		c28.3,53.1,98.5,166.8,150.2,166.8c4.9,0,17.1-0.4,48.6-2.7c-44.5-18.4-109.7-99.8-144.8-155.2c48.6-8.1,77.8-42.7,77.8-79.6
		c0-24.7-10.3-81.9-112.9-81.9c-13,0-26.1,0.4-39.1,0.9C3658.5,1859.4,3638.7,1859.8,3618.9,1859.8L3618.9,1859.8z M3903.2,1859.8
		c20.7,14.4,20.7,33.3,20.7,45v224.9c0,11.7,0,30.6-20.7,45h196.1l22.9-63.4c-19.8,17.5-44.5,27.4-94,27.4c-9,0-31-0.4-58.5-3.1
		v-112.9h46.8c15.7,0,25.6,3.1,34.2,11.7v-49c-4.9,0.9-10.3,1.3-16.2,1.3h-64.8v-89.9l60.7-1.3c26.5-0.4,38.7,6.3,47.2,16.2v-51.7
		H3903.2z"/>
	<path id="path14" class="st2" d="M1084.8,2459.8c-13.1-6.2-14.2-19.3-14.2-26.6v-114.8c6.2-1.4,12.9-2.3,19.3-2.3
		c21.6,0,34.4,11.2,34.4,30.1c0,28.9-26.6,37.6-45,38.3c5.7,1.6,12.9,3,19.5,3c25.7,0,51.9-15.4,51.9-45.9
		c0-42.2-44.5-42.5-57.2-42.5h-56.9c10.6,7.3,10.6,16.5,10.6,23v114.8c0,7.6-0.2,15.6-10.6,23H1084.8z M1199.1,2362.5v-40.4
		c0-7.6,0.2-15.6,10.6-23h-44.5c10.3,7.3,10.6,15.4,10.6,23v114.8c0,7.6-0.2,15.6-10.6,23h44.5c-10.3-7.3-10.6-15.4-10.6-23v-56
		h88.4v56c0,7.6-0.2,15.6-10.6,23h44.5c-10.3-7.3-10.6-15.4-10.6-23v-114.8c0-7.6,0.2-15.6,10.6-23h-44.5
		c10.3,7.3,10.6,15.4,10.6,23v40.4H1199.1z M1322.1,2299.1c5.1,2.3,11.5,6.7,17.2,15.6l47.3,73v49.1c0,6.4,0,15.6-10.6,23h44.5
		c-10.6-7.3-10.6-16.5-10.6-23v-48.9l59.2-88.8h-39.7c3.9,2.1,7.8,6.4,7.8,11.7c0,3-1.4,6.2-3.2,9.2l-31.7,49.1l-43.8-69.3
		c-2.3-0.9-4.1-1.1-6.7-1.1L1322.1,2299.1z M1565.5,2300.7c-11.9-3.4-23.6-5.1-37-5.1c-47.8,0-60.1,23.2-60.1,42.9
		c0,25.3,19.5,35.4,45.7,47.3c20.2,9.2,38.8,15.8,38.8,34.4c0,15.4-14.7,24.6-37.4,24.6c-27.1,0-43.4-11.5-51.9-18.8l6.7,30.3
		c14.9,5.1,28.7,6.9,43.8,6.9c33.5,0,64.5-14.7,64.5-49.4c0-24.8-16.3-33.3-43.4-45.5c-27.8-12.4-40.4-18.8-40.4-32.6
		c0-8.7,5.5-23.2,31.5-23.2c9.4,0,23.2,1.6,39.3,14.9L1565.5,2300.7z M1589.6,2299.1c10.6,7.3,10.6,16.5,10.6,23v114.8
		c0,6.4,0,15.6-10.6,23h44.5c-10.6-7.3-10.6-16.5-10.6-23v-114.8c0-6.4,0-15.6,10.6-23H1589.6z M1740.4,2295.7
		c-57.9,0-88.2,40.9-88.2,83.8c0,40.4,28,83.8,88.2,83.8c57.9,0,88.2-40.9,88.2-83.8C1828.6,2339,1800.6,2295.7,1740.4,2295.7z
		 M1740.9,2314.5c36.3,0,61.3,28.7,61.3,68.6c0,42.2-32.6,61.3-62.2,61.3c-36.3,0-61.3-28.7-61.3-68.6
		C1678.7,2333.5,1711.3,2314.5,1740.9,2314.5L1740.9,2314.5z M1904.6,2317.5l25.7-0.2c5.7,0,14,0,18.4,7.8l8-26.9
		c-4.1,0.5-9.2,0.9-14,0.9h-88.8c-6,0-9.2,0-14.7-0.9l-9.2,28.7c8.5-8.7,18.4-9.6,23.9-9.6l27.3,0.2v119.4c0,6.4,0,15.6-10.6,23
		h44.5c-10.6-7.3-10.6-16.5-10.6-23L1904.6,2317.5z M1993.6,2362.5v-40.4c0-7.6,0.2-15.6,10.6-23h-44.5c10.3,7.3,10.6,15.4,10.6,23
		v114.8c0,7.6-0.2,15.6-10.6,23h44.5c-10.3-7.3-10.6-15.4-10.6-23v-56h88.4v56c0,7.6-0.2,15.6-10.6,23h44.5
		c-10.3-7.3-10.6-15.4-10.6-23v-114.8c0-7.6,0.2-15.6,10.6-23h-44.5c10.3,7.3,10.6,15.4,10.6,23v40.4H1993.6z M2135.7,2299.1
		c10.6,7.3,10.6,17,10.6,23v114.8c0,6,0,15.6-10.6,23h100.1l11.7-32.4c-10.1,9-22.7,14-48,14c-4.6,0-15.8-0.2-29.8-1.6v-57.6h23.9
		c8,0,13.1,1.6,17.4,6v-25c-2.5,0.5-5.3,0.7-8.3,0.7h-33.1v-45.9l31-0.7c13.5-0.2,19.7,3.2,24.1,8.3v-26.4H2135.7z M2254,2299.1
		c10.6,7.3,10.6,16.5,10.6,23v114.8c0,6.4,0,15.6-10.6,23h44.5c-10.6-7.3-10.6-16.5-10.6-23v-120.1c5.3-1.4,9.6-1.6,15.4-1.6
		c28.2,0,32.1,16.5,32.1,26.9c0,23-24.3,32.4-40.9,34c14.5,27.1,50.3,85.2,76.7,85.2c2.5,0,8.7-0.2,24.8-1.4
		c-22.7-9.4-56-51-73.9-79.2c24.8-4.1,39.7-21.8,39.7-40.6c0-12.6-5.3-41.8-57.6-41.8c-6.7,0-13.3,0.2-20,0.5
		C2274.2,2298.9,2264.1,2299.1,2254,2299.1L2254,2299.1z M2423.2,2299.1c9.4,4.4,6.2,13.1,5.3,15.4l-45.9,116.2
		c-4.4,11-9,21.3-20.9,29.2h43.4c-10.8-7.6-8.7-17-5.5-25l14.5-36h61.8l17.4,43.2c2.1,5.3,3.9,13.1-6.9,17.9h49.4
		c-11.2-6-15.8-14.7-19.5-23.6l-55.3-137.1H2423.2z M2444.7,2320l25,63.4h-49.8L2444.7,2320z M2582.3,2459.8
		c-13.1-6.2-14.2-19.3-14.2-26.6v-114.8c6.2-1.4,12.9-2.3,19.3-2.3c21.6,0,34.4,11.2,34.4,30.1c0,28.9-26.6,37.6-45,38.3
		c5.7,1.6,12.9,3,19.5,3c25.7,0,51.9-15.4,51.9-45.9c0-42.2-44.5-42.5-57.2-42.5H2534c10.6,7.3,10.6,16.5,10.6,23v114.8
		c0,7.6-0.2,15.6-10.6,23H2582.3z M2643.6,2299.1c5.1,2.3,11.5,6.7,17.2,15.6l47.3,73v49.1c0,6.4,0,15.6-10.6,23h44.5
		c-10.6-7.3-10.6-16.5-10.6-23v-48.9l59.2-88.8H2751c3.9,2.1,7.8,6.4,7.8,11.7c0,3-1.4,6.2-3.2,9.2l-31.7,49.1l-43.8-69.3
		c-2.3-0.9-4.1-1.1-6.7-1.1L2643.6,2299.1z M2904.6,2364.5c13.5-11.2,23.4-22.7,23.4-36.7c0-16.5-11.7-32.1-36.7-32.1
		c-26.9,0-38.3,17-38.3,33.3c0,12.6,8,23,19.7,33.7c-28.2,19.7-34.4,37.4-34.4,53.9c0,29.8,24.8,46.6,56.2,46.6
		c19.3,0,34.4-5.5,50.5-28.5c20.9,19.7,35.1,26.4,48.7,25.9l29.8-0.9c-17.2-7.1-42.9-21.1-88.8-65.9L2904.6,2364.5z M2890.8,2350.1
		c-7.8-5.7-16.8-14.9-16.8-25.3c0-9,6.9-14.5,16.1-14.5c10.1,0,16.8,6.7,16.8,16.3C2906.9,2339.3,2895.2,2347.3,2890.8,2350.1
		L2890.8,2350.1z M2935.1,2425.8c-13.8,17.2-25.9,20.2-38.1,20.2c-19.7,0-33.3-13.1-33.3-32.6c0-16.3,12.9-28.7,23-35.4
		L2935.1,2425.8z M3012.7,2299.1c2.8,2.1,10.1,8,14.7,23l34,108.6c4.1,13.3,10.8,23.9,30.5,35.6l39.3-122.8l27.3,87.7
		c3.7,11.7,7.3,22.7,30.3,35.1l56-167.1h-37c7.1,3.4,11,10.3,11,18.1c0,2.5-0.2,7.1-3.2,16.1l-32.4,99.9l-35.8-113.6
		c-2.5-8-2.8-14.7-2.3-20.4h-31.5c6.2,4.1,8,10.1,8,15.8c0,4.8-1.1,10.6-2.5,14.9l-33.1,102.6l-36.7-119.1
		c-1.6-5.3-2.3-9.9-2.3-14.2H3012.7z M3247.8,2299.1c10.6,7.3,10.6,17,10.6,23v114.8c0,6,0,15.6-10.6,23h100.1l11.7-32.4
		c-10.1,9-22.7,14-48,14c-4.6,0-15.8-0.2-29.8-1.6v-57.6h23.9c8,0,13.1,1.6,17.4,6v-25c-2.5,0.5-5.3,0.7-8.3,0.7h-33.1v-45.9l31-0.7
		c13.5-0.2,19.7,3.2,24.1,8.3v-26.4H3247.8z M3366,2299.1c10.6,7.3,10.6,16.5,10.6,23v114.8c0,6.4,0,15.6-10.6,23h98.7l12.9-33.3
		c-14.5,12.2-36.3,14.9-51.2,14.9c-7.6,0-18.8-1.1-26.4-2.1v-117.3c0-5.7,0.5-15.8,11.7-23H3366z M3484,2299.1
		c10.6,7.3,10.6,16.5,10.6,23v114.8c0,6.4,0,15.6-10.6,23h98.7l12.9-33.3c-14.5,12.2-36.3,14.9-51.2,14.9c-7.6,0-18.8-1.1-26.4-2.1
		v-117.3c0-5.7,0.5-15.8,11.7-23H3484z M3601.3,2299.1c10.6,7.3,10.6,16.5,10.6,23v114.8c0,6.4,0,15.6-10.6,23h39
		c-10.6-7.3-10.6-16.5-10.6-23v-104.5l85.2,106.5c8,10.1,17,22,35.8,27.3v-144.2c0-6.4,0-15.6,10.6-23h-39
		c10.6,7.3,10.6,16.5,10.6,23v100.1l-93.9-117.1c-0.2-0.2-1.6-2.1-3.4-6H3601.3z M3780.4,2299.1c10.6,7.3,10.6,17,10.6,23v114.8
		c0,6,0,15.6-10.6,23h100.1l11.7-32.4c-10.1,9-22.7,14-48,14c-4.6,0-15.8-0.2-29.8-1.6v-57.6h23.9c8,0,13.1,1.6,17.4,6v-25
		c-2.5,0.5-5.3,0.7-8.3,0.7h-33.1v-45.9l31-0.7c13.5-0.2,19.7,3.2,24.1,8.3v-26.4H3780.4z M3991.8,2300.7c-11.9-3.4-23.6-5.1-37-5.1
		c-47.8,0-60.1,23.2-60.1,42.9c0,25.3,19.5,35.4,45.7,47.3c20.2,9.2,38.8,15.8,38.8,34.4c0,15.4-14.7,24.6-37.4,24.6
		c-27.1,0-43.4-11.5-51.9-18.8l6.7,30.3c14.9,5.1,28.7,6.9,43.8,6.9c33.5,0,64.5-14.7,64.5-49.4c0-24.8-16.3-33.3-43.4-45.5
		c-27.8-12.4-40.4-18.8-40.4-32.6c0-8.7,5.5-23.2,31.5-23.2c9.4,0,23.2,1.6,39.3,14.9L3991.8,2300.7z M4109.1,2300.7
		c-11.9-3.4-23.6-5.1-37-5.1c-47.8,0-60.1,23.2-60.1,42.9c0,25.3,19.5,35.4,45.7,47.3c20.2,9.2,38.8,15.8,38.8,34.4
		c0,15.4-14.7,24.6-37.4,24.6c-27.1,0-43.4-11.5-51.9-18.8l6.7,30.3c14.9,5.1,28.7,6.9,43.8,6.9c33.5,0,64.5-14.7,64.5-49.4
		c0-24.8-16.3-33.3-43.4-45.5c-27.8-12.4-40.4-18.8-40.4-32.6c0-8.7,5.5-23.2,31.5-23.2c9.4,0,23.2,1.6,39.3,14.9V2300.7z"/>
</g>
</svg>
