<?xml version="1.0" encoding="utf-8"?>
<!-- Generator: Adobe Illustrator 26.5.2, SVG Export Plug-In . SVG Version: 6.00 Build 0)  -->
<svg version="1.1" id="Layer_1" xmlns="http://www.w3.org/2000/svg" xmlns:xlink="http://www.w3.org/1999/xlink" x="0px" y="0px"
	 viewBox="0 0 4320 4320" style="enable-background:new 0 0 4320 4320;" xml:space="preserve">
<style type="text/css">
	.st0{fill:none;stroke:#010101;stroke-width:2.7503;}
	.st1{fill-rule:evenodd;clip-rule:evenodd;fill:#00A39C;}
	.st2{fill-rule:evenodd;clip-rule:evenodd;fill:#EE7D22;}
	.st3{fill-rule:evenodd;clip-rule:evenodd;fill:#EE7D22;stroke:#EE7D22;stroke-width:0.4584;}
	.st4{fill-rule:evenodd;clip-rule:evenodd;fill:#00A39C;stroke:#00A39C;stroke-width:0.4584;}
</style>
<g>
	<path id="path4" class="st0" d="M2160,481.6c632.6,0,1145.5,526.2,1145.5,1175.2l0,0c0,649.1-512.9,1175.2-1145.5,1175.2
		s-1145.5-526.2-1145.5-1175.2S1527.4,481.6,2160,481.6z"/>
	<path id="path6" class="st1" d="M2304.4,1934.6c0.4,67.3,0.7,134.6,1.1,201.8c158.6-12.1,313-50.3,445.1-230.5
		C2662.2,1736,2492.9,1923,2304.4,1934.6L2304.4,1934.6z"/>
	<path id="path8" class="st1" d="M2480.4,1329c91.6,36.2,180.2,39.4,257-89.3c-578.2-357.9-1095.8,63.8-892.3,640.8
		c52.9-34.6,105.9-69.1,158.8-103.7C1874.8,1514,2126.1,1204,2480.4,1329z"/>
	<path id="path10" class="st2" d="M2045.1,1461.1c57.7-37,115.4-73.9,173.2-110.9c90.9,257.9,58.6,504.2,59.6,779.3
		c-55.7,14.6-106.8,3.8-147.8-64c-2.2-43.8-4.4-87.5-6.6-131.3c-479.3,365.2-897,46.1-883.2-322c16.3-436.4,402.3-568.6,735.5-463.3
		c-44.9,50-89.7,100-134.6,150c-367-128-650.7,500.3-143.4,622.1C1981.5,1933.1,2149.6,1727.2,2045.1,1461.1L2045.1,1461.1z"/>
	<path id="path16" class="st3" d="M2845.8,2582c173.3-80.4,503.5-531.8,451.6-992.3c-39.7-22.1-79.4-44.1-119.1-66.2
		c-69,172.9-212.2,271.6-353,372.8c132.4-3.4,261.8-28.3,370.6-194.1C3137.2,1989,3001.7,2327.2,2845.8,2582L2845.8,2582z"/>
	<path id="path18" class="st4" d="M2948,1138.8c39.9,0,72.2,32.3,72.2,72.2s-32.3,72.2-72.2,72.2c-39.9,0-72.2-32.3-72.2-72.2
		C2875.8,1171.1,2908.1,1138.8,2948,1138.8L2948,1138.8z"/>
	<path id="path20" class="st1" d="M3299.5,1582.4c-7.5-198-98.9-463.5-204.3-581.5c75.4,471.7-342.5,411.4-188.8,435.9
		C3052,1445.8,3203.4,1491.1,3299.5,1582.4z"/>
</g>
<g>
	<path id="path12" class="st1" d="M463.6,3115.1c22,10.2,14.5,30.6,12.3,35.9l-107.3,271.4c-10.2,25.7-20.9,49.9-48.8,68.1h101.4
		c-25.2-17.7-20.4-39.7-12.9-58.5l33.8-84.2h144.3l40.8,100.8c4.8,12.3,9.1,30.6-16.1,41.8h115.3c-26.3-13.9-37-34.3-45.6-55.2
		l-129.3-320.2H463.6z M514,3164l58.5,148H456.1L514,3164z M845.5,3490.6c-30.6-14.5-33.3-45.1-33.3-62.2v-268.2
		c14.5-3.2,30-5.4,45.1-5.4c50.4,0,80.5,26.3,80.5,70.3c0,67.6-62.2,88-105.1,89.6c13.4,3.8,30,7,45.6,7
		c60.1,0,121.2-35.9,121.2-107.3c0-98.7-104.1-99.2-133.6-99.2h-133c24.7,17.2,24.7,38.6,24.7,53.6V3437c0,17.7-0.5,36.5-24.7,53.6
		H845.5z M1005.9,3115.1c24.7,17.2,24.7,38.6,24.7,53.6V3437c0,15,0,36.5-24.7,53.6h104.1c-24.7-17.2-24.7-38.6-24.7-53.6v-280.5
		c12.3-3.2,22.5-3.8,35.9-3.8c66,0,75.1,38.6,75.1,62.8c0,53.6-56.9,75.6-95.5,79.4c33.8,63.3,117.5,199,179.2,199
		c5.9,0,20.4-0.5,57.9-3.2c-53.1-22-130.9-119.1-172.7-185.1c57.9-9.7,92.8-51,92.8-94.9c0-29.5-12.3-97.6-134.6-97.6
		c-15.6,0-31.1,0.5-46.7,1.1C1053.1,3114.6,1029.5,3115.1,1005.9,3115.1L1005.9,3115.1z M1344.3,3115.1
		c24.7,17.2,24.7,38.6,24.7,53.6V3437c0,15,0,36.5-24.7,53.6h104.1c-24.7-17.2-24.7-38.6-24.7-53.6v-268.2c0-15,0-36.5,24.7-53.6
		H1344.3z M1763.3,3121.6c-11.8-1.6-19.3-3.2-30-5.9c-17.7-3.8-37-8.6-69.7-8.6c-135.7,0-208.7,95.5-208.7,198.5
		c0,83.1,49.9,193.1,210.8,193.1c35.4,0,62.2-3.2,93.9-13.4l36.5-71.9c-16.1,13.4-52,39.7-126.1,39.7c-108.4,0-153.4-83.7-153.4-162
		c0-91.7,70.3-138.4,140.5-138.4c56.3,0,96,27.4,106.2,34.3L1763.3,3121.6z M2008.4,3107.1c-135.2,0-206,95.5-206,195.8
		c0,94.4,65.4,195.8,206,195.8c135.2,0,206-95.5,206-195.8C2214.4,3208.5,2148.9,3107.1,2008.4,3107.1z M2009.5,3151.1
		c84.8,0,143.2,67.1,143.2,160.4c0,98.7-76.2,143.2-145.4,143.2c-84.8,0-143.2-67.1-143.2-160.4
		C1864.1,3195.6,1940.3,3151.1,2009.5,3151.1z M2395.2,3158.1l60.1-0.5c13.4,0,32.7,0,42.9,18.2l18.8-62.8
		c-9.7,1.1-21.5,2.1-32.7,2.1h-207.6c-13.9,0-21.5,0-34.3-2.1l-21.5,67.1c19.8-20.4,42.9-22.5,55.8-22.5l63.8,0.5V3437
		c0,15,0,36.5-24.7,53.6h104.1c-24.7-17.2-24.7-38.6-24.7-53.6V3158.1z M2947.1,3121.6c-11.8-1.6-19.3-3.2-30-5.9
		c-17.7-3.8-37-8.6-69.7-8.6c-135.7,0-208.7,95.5-208.7,198.5c0,83.1,49.9,193.1,210.8,193.1c35.4,0,62.2-3.2,93.9-13.4l36.5-71.9
		c-16.1,13.4-52,39.7-126.1,39.7c-108.4,0-153.4-83.7-153.4-162c0-91.7,70.3-138.4,140.5-138.4c56.3,0,96,27.4,106.2,34.3V3121.6z
		 M3130.6,3115.1c22,10.2,14.5,30.6,12.3,35.9l-107.3,271.4c-10.2,25.7-20.9,49.9-48.8,68.1h101.4c-25.2-17.7-20.4-39.7-12.9-58.5
		l33.8-84.2h144.3l40.8,100.8c4.8,12.3,9.1,30.6-16.1,41.8h115.3c-26.3-13.9-37-34.3-45.6-55.2l-129.3-320.2H3130.6z M3174,3164
		l58.5,148h-116.4L3174,3164z M3399.9,3115.1c24.7,17.2,24.7,38.6,24.7,53.6V3437c0,15,0,36.5-24.7,53.6h104.1
		c-24.7-17.2-24.7-38.6-24.7-53.6v-280.5c12.3-3.2,22.5-3.8,35.9-3.8c66,0,75.1,38.6,75.1,62.8c0,53.6-56.9,75.6-95.5,79.4
		c33.8,63.3,117.5,199,179.2,199c5.9,0,20.4-0.5,57.9-3.2c-53.1-22-130.9-119.1-172.7-185.1c57.9-9.7,92.8-51,92.8-94.9
		c0-29.5-12.3-97.6-134.6-97.6c-15.6,0-31.1,0.5-46.7,1.1C3447.1,3114.6,3423.5,3115.1,3399.9,3115.1L3399.9,3115.1z M3739,3115.1
		c24.7,17.2,24.7,39.7,24.7,53.6V3437c0,13.9,0,36.5-24.7,53.6h233.9l27.4-75.6c-23.6,20.9-53.1,32.7-112.1,32.7
		c-10.7,0-37-0.5-69.7-3.8v-134.6h55.8c18.8,0,30.6,3.8,40.8,13.9v-58.5c-5.9,1.1-12.3,1.6-19.3,1.6h-77.2v-107.3l72.4-1.6
		c31.6-0.5,46.1,7.5,56.3,19.3v-61.7H3739z"/>
	<path id="path14" class="st2" d="M377.3,3830.7c-15.6-7.4-17-23-17-31.8v-136.9c7.4-1.6,15.3-2.7,23-2.7
		c25.7,0,41.1,13.4,41.1,35.9c0,34.5-31.8,44.9-53.7,45.7c6.8,1.9,15.3,3.6,23.3,3.6c30.7,0,61.9-18.3,61.9-54.8
		c0-50.4-53.1-50.7-68.2-50.7h-67.9c12.6,8.8,12.6,19.7,12.6,27.4v136.9c0,9-0.3,18.6-12.6,27.4H377.3z M513.7,3714.6v-48.2
		c0-9,0.3-18.6,12.6-27.4h-53.1c12.3,8.8,12.6,18.3,12.6,27.4v136.9c0,9-0.3,18.6-12.6,27.4h53.1c-12.3-8.8-12.6-18.3-12.6-27.4
		v-66.8h105.4v66.8c0,9-0.3,18.6-12.6,27.4h53.1c-12.3-8.8-12.6-18.3-12.6-27.4v-136.9c0-9,0.3-18.6,12.6-27.4h-53.1
		c12.3,8.8,12.6,18.3,12.6,27.4v48.2H513.7z M660.4,3639.1c6,2.7,13.7,7.9,20.5,18.6l56.4,87.1v58.6c0,7.7,0,18.6-12.6,27.4h53.1
		c-12.6-8.8-12.6-19.7-12.6-27.4V3745l70.6-106h-47.4c4.7,2.5,9.3,7.7,9.3,14c0,3.6-1.6,7.4-3.8,11l-37.8,58.6l-52.3-82.7
		c-2.7-1.1-4.9-1.4-7.9-1.4L660.4,3639.1z M950.7,3641c-14.2-4.1-28.2-6-44.1-6c-57,0-71.7,27.7-71.7,51.2
		c0,30.1,23.3,42.2,54.5,56.4c24.1,11,46.3,18.9,46.3,41.1c0,18.3-17.5,29.3-44.6,29.3c-32.3,0-51.8-13.7-61.9-22.5l7.9,36.1
		c17.8,6,34.2,8.2,52.3,8.2c40,0,76.9-17.5,76.9-58.9c0-29.6-19.4-39.7-51.8-54.2c-33.1-14.8-48.2-22.5-48.2-38.9
		c0-10.4,6.6-27.7,37.5-27.7c11.2,0,27.7,1.9,46.8,17.8L950.7,3641z M979.4,3639.1c12.6,8.8,12.6,19.7,12.6,27.4v136.9
		c0,7.7,0,18.6-12.6,27.4h53.1c-12.6-8.8-12.6-19.7-12.6-27.4v-136.9c0-7.7,0-18.6,12.6-27.4H979.4z M1159.3,3634.9
		c-69,0-105.1,48.7-105.1,99.9c0,48.2,33.4,99.9,105.1,99.9c69,0,105.1-48.7,105.1-99.9C1264.5,3686.7,1231.1,3634.9,1159.3,3634.9z
		 M1159.9,3657.4c43.3,0,73.1,34.2,73.1,81.9c0,50.4-38.9,73.1-74.2,73.1c-43.3,0-73.1-34.2-73.1-81.9
		C1085.7,3680.1,1124.6,3657.4,1159.9,3657.4L1159.9,3657.4z M1355.1,3661l30.7-0.3c6.8,0,16.7,0,21.9,9.3l9.6-32
		c-4.9,0.5-11,1.1-16.7,1.1h-106c-7.1,0-11,0-17.5-1.1l-11,34.2c10.1-10.4,21.9-11.5,28.5-11.5l32.6,0.3v142.4
		c0,7.7,0,18.6-12.6,27.4h53.1c-12.6-8.8-12.6-19.7-12.6-27.4L1355.1,3661z M1461.4,3714.6v-48.2c0-9,0.3-18.6,12.6-27.4h-53.1
		c12.3,8.8,12.6,18.3,12.6,27.4v136.9c0,9-0.3,18.6-12.6,27.4h53.1c-12.3-8.8-12.6-18.3-12.6-27.4v-66.8h105.4v66.8
		c0,9-0.3,18.6-12.6,27.4h53.1c-12.3-8.8-12.6-18.3-12.6-27.4v-136.9c0-9,0.3-18.6,12.6-27.4h-53.1c12.3,8.8,12.6,18.3,12.6,27.4
		v48.2H1461.4z M1630.8,3639.1c12.6,8.8,12.6,20.3,12.6,27.4v136.9c0,7.1,0,18.6-12.6,27.4h119.4l14-38.6
		c-12,10.7-27.1,16.7-57.2,16.7c-5.5,0-18.9-0.3-35.6-1.9v-68.7h28.5c9.6,0,15.6,1.9,20.8,7.1v-29.8c-3,0.5-6.3,0.8-9.9,0.8h-39.4
		v-54.8l37-0.8c16.2-0.3,23.5,3.8,28.8,9.9v-31.5H1630.8z M1771.9,3639.1c12.6,8.8,12.6,19.7,12.6,27.4v136.9
		c0,7.7,0,18.6-12.6,27.4h53.1c-12.6-8.8-12.6-19.7-12.6-27.4v-143.2c6.3-1.6,11.5-1.9,18.3-1.9c33.7,0,38.3,19.7,38.3,32
		c0,27.4-29,38.6-48.7,40.5c17.3,32.3,60,101.6,91.5,101.6c3,0,10.4-0.3,29.6-1.6c-27.1-11.2-66.8-60.8-88.2-94.5
		c29.6-4.9,47.4-26,47.4-48.5c0-15.1-6.3-49.8-68.7-49.8c-7.9,0-15.9,0.3-23.8,0.5C1796,3638.8,1783.9,3639.1,1771.9,3639.1
		L1771.9,3639.1z M1973.7,3639.1c11.2,5.2,7.4,15.6,6.3,18.3l-54.8,138.6c-5.2,13.1-10.7,25.5-24.9,34.8h51.8
		c-12.9-9-10.4-20.3-6.6-29.8l17.3-43h73.7l20.8,51.5c2.5,6.3,4.7,15.6-8.2,21.4h58.9c-13.4-7.1-18.9-17.5-23.3-28.2l-66-163.5
		H1973.7z M1999.4,3664l29.8,75.6h-59.4L1999.4,3664z M2163.4,3830.7c-15.6-7.4-17-23-17-31.8v-136.9c7.4-1.6,15.3-2.7,23-2.7
		c25.7,0,41.1,13.4,41.1,35.9c0,34.5-31.8,44.9-53.7,45.7c6.8,1.9,15.3,3.6,23.3,3.6c30.7,0,61.9-18.3,61.9-54.8
		c0-50.4-53.1-50.7-68.2-50.7h-67.9c12.6,8.8,12.6,19.7,12.6,27.4v136.9c0,9-0.3,18.6-12.6,27.4H2163.4z M2236.5,3639.1
		c6,2.7,13.7,7.9,20.5,18.6l56.4,87.1v58.6c0,7.7,0,18.6-12.6,27.4h53.1c-12.6-8.8-12.6-19.7-12.6-27.4V3745l70.6-106h-47.4
		c4.7,2.5,9.3,7.7,9.3,14c0,3.6-1.6,7.4-3.8,11l-37.8,58.6l-52.3-82.7c-2.7-1.1-4.9-1.4-7.9-1.4L2236.5,3639.1z M2547.9,3717.1
		c16.2-13.4,27.9-27.1,27.9-43.8c0-19.7-14-38.3-43.8-38.3c-32,0-45.7,20.3-45.7,39.7c0,15.1,9.6,27.4,23.5,40.3
		c-33.7,23.5-41.1,44.6-41.1,64.3c0,35.6,29.6,55.6,67.1,55.6c23,0,41.1-6.6,60.2-34c24.9,23.5,41.9,31.5,58,30.9l35.6-1.1
		c-20.5-8.5-51.2-25.2-106-78.6L2547.9,3717.1z M2531.4,3699.8c-9.3-6.8-20-17.8-20-30.1c0-10.7,8.2-17.3,19.2-17.3
		c12,0,20,7.9,20,19.4C2550.6,3687,2536.6,3696.6,2531.4,3699.8L2531.4,3699.8z M2584.3,3790.2c-16.4,20.5-30.9,24.1-45.5,24.1
		c-23.5,0-39.7-15.6-39.7-38.9c0-19.4,15.3-34.2,27.4-42.2L2584.3,3790.2z M2676.8,3639.1c3.3,2.5,12,9.6,17.5,27.4l40.5,129.5
		c4.9,15.9,12.9,28.5,36.4,42.4l46.8-146.5l32.6,104.6c4.4,14,8.8,27.1,36.1,41.9l66.8-199.3h-44.1c8.5,4.1,13.1,12.3,13.1,21.6
		c0,3-0.3,8.5-3.8,19.2l-38.6,119.1l-42.7-135.5c-3-9.6-3.3-17.5-2.7-24.4h-37.5c7.4,4.9,9.6,12,9.6,18.9c0,5.8-1.4,12.6-3,17.8
		l-39.4,122.4l-43.8-142.1c-1.9-6.3-2.7-11.8-2.7-17H2676.8z M2957.2,3639.1c12.6,8.8,12.6,20.3,12.6,27.4v136.9
		c0,7.1,0,18.6-12.6,27.4h119.4l14-38.6c-12,10.7-27.1,16.7-57.2,16.7c-5.5,0-18.9-0.3-35.6-1.9v-68.7h28.5c9.6,0,15.6,1.9,20.8,7.1
		v-29.8c-3,0.5-6.3,0.8-9.9,0.8h-39.4v-54.8l37-0.8c16.2-0.3,23.5,3.8,28.8,9.9v-31.5H2957.2z M3098.2,3639.1
		c12.6,8.8,12.6,19.7,12.6,27.4v136.9c0,7.7,0,18.6-12.6,27.4H3216l15.3-39.7c-17.2,14.5-43.3,17.8-61.1,17.8
		c-9,0-22.5-1.4-31.5-2.5v-139.9c0-6.8,0.5-18.9,14-27.4H3098.2z M3239,3639.1c12.6,8.8,12.6,19.7,12.6,27.4v136.9
		c0,7.7,0,18.6-12.6,27.4h117.7l15.3-39.7c-17.3,14.5-43.3,17.8-61.1,17.8c-9,0-22.5-1.4-31.5-2.5v-139.9c0-6.8,0.5-18.9,14-27.4
		H3239z M3378.9,3639.1c12.6,8.8,12.6,19.7,12.6,27.4v136.9c0,7.7,0,18.6-12.6,27.4h46.5c-12.6-8.8-12.6-19.7-12.6-27.4v-124.6
		l101.6,127.1c9.6,12,20.3,26.3,42.7,32.6v-172c0-7.7,0-18.6,12.6-27.4h-46.5c12.6,8.8,12.6,19.7,12.6,27.4v119.4l-112-139.6
		c-0.3-0.3-1.9-2.5-4.1-7.1H3378.9z M3592.5,3639.1c12.6,8.8,12.6,20.3,12.6,27.4v136.9c0,7.1,0,18.6-12.6,27.4h119.4l14-38.6
		c-12,10.7-27.1,16.7-57.2,16.7c-5.5,0-18.9-0.3-35.6-1.9v-68.7h28.5c9.6,0,15.6,1.9,20.8,7.1v-29.8c-3,0.5-6.3,0.8-9.9,0.8H3633
		v-54.8l37-0.8c16.2-0.3,23.5,3.8,28.8,9.9v-31.5H3592.5z M3844.7,3641c-14.2-4.1-28.2-6-44.1-6c-57,0-71.7,27.7-71.7,51.2
		c0,30.1,23.3,42.2,54.5,56.4c24.1,11,46.3,18.9,46.3,41.1c0,18.3-17.5,29.3-44.6,29.3c-32.3,0-51.8-13.7-61.9-22.5l7.9,36.1
		c17.8,6,34.2,8.2,52.3,8.2c40,0,76.9-17.5,76.9-58.9c0-29.6-19.4-39.7-51.8-54.2c-33.1-14.8-48.2-22.5-48.2-38.9
		c0-10.4,6.6-27.7,37.5-27.7c11.2,0,27.7,1.9,46.8,17.8L3844.7,3641z M3984.6,3641c-14.2-4.1-28.2-6-44.1-6
		c-57,0-71.7,27.7-71.7,51.2c0,30.1,23.3,42.2,54.5,56.4c24.1,11,46.3,18.9,46.3,41.1c0,18.3-17.5,29.3-44.6,29.3
		c-32.3,0-51.8-13.7-61.9-22.5l7.9,36.1c17.8,6,34.2,8.2,52.3,8.2c40,0,76.9-17.5,76.9-58.9c0-29.6-19.4-39.7-51.8-54.2
		c-33.1-14.8-48.2-22.5-48.2-38.9c0-10.4,6.6-27.7,37.5-27.7c11.2,0,27.7,1.9,46.8,17.8V3641z"/>
</g>
</svg>
